<mxfile host="app.diagrams.net" modified="2022-11-20T06:06:39.834Z" agent="5.0 (Macintosh; Intel Mac OS X 10_15_7) AppleWebKit/537.36 (KHTML, like Gecko) Chrome/107.0.0.0 Safari/537.36" etag="_OGqKzl22Ncj0tncLLYv" version="20.5.3" type="github">
  <diagram id="Y9c0e2rDBJw9lQDXXatF" name="ページ1">
    <mxGraphModel dx="2262" dy="4063" grid="1" gridSize="10" guides="1" tooltips="1" connect="1" arrows="1" fold="1" page="1" pageScale="1" pageWidth="1654" pageHeight="1169" math="0" shadow="0">
      <root>
        <mxCell id="0" />
        <mxCell id="1" parent="0" />
        <mxCell id="By_VAuEr0I4qx7pVThNe-1" value="&lt;p style=&quot;margin:0px;margin-top:4px;text-align:center;&quot;&gt;&lt;i&gt;&amp;lt;&amp;lt;control&amp;gt;&amp;gt;&lt;/i&gt;&lt;br&gt;&lt;b&gt;小動物コントローラー｜smallanimal-controller&lt;/b&gt;&lt;/p&gt;&lt;hr size=&quot;1&quot;&gt;&lt;p style=&quot;margin:0px;margin-left:4px;&quot;&gt;+ 検索()｜searchItem(): Array&lt;br&gt;&lt;/p&gt;&lt;p style=&quot;margin:0px;margin-left:4px;&quot;&gt;+ 未登録の種名()｜unRegisterMaster(): Array&lt;br&gt;&lt;/p&gt;&lt;p style=&quot;margin:0px;margin-left:4px;&quot;&gt;&lt;/p&gt;&lt;br&gt;&lt;div&gt;&lt;/div&gt;&lt;hr size=&quot;1&quot;&gt;&lt;p style=&quot;margin:0px;margin-left:4px;&quot;&gt;&lt;/p&gt;&amp;nbsp;&lt;span style=&quot;background-color: initial;&quot;&gt;+ 初期設定&lt;/span&gt;する()｜&lt;span style=&quot;background-color: initial;&quot;&gt;initialize()&lt;/span&gt;&lt;span style=&quot;background-color: initial;&quot;&gt;&lt;br&gt;&lt;/span&gt;&amp;nbsp;+ 日付範囲を条件指定抽出し、表示内容を変更する()｜&lt;span style=&quot;background-color: initial;&quot;&gt;filterDateRange(dates: Array)&lt;br&gt;&lt;/span&gt;&lt;span style=&quot;background-color: initial;&quot;&gt;&amp;nbsp;+ インポートデータを表示用に形成する｜shapingImportData(v: Object)&lt;br&gt;&lt;/span&gt;&amp;nbsp;+ ExcelファイルをアップロードしJSONを取得する｜importExcel(datas: Array)&lt;br&gt;&amp;nbsp;+ JSONをロードしロードキルDBへバッチ更新処理する｜saveImport(result)&lt;br&gt;&amp;nbsp;+ 未登録の種名を新規登録する｜addMasterCategory()&lt;span style=&quot;background-color: initial;&quot;&gt;&lt;br&gt;&lt;/span&gt;&amp;nbsp;+ 未登録の種名を一括更新する｜saveMasterCategory()&lt;br&gt;&amp;nbsp;+ 単一更新する｜save(item: Object, key: String)&lt;br&gt;&amp;nbsp;+ 公開・非公開を更新する｜savePublic(item: Object, key: String)" style="verticalAlign=top;align=left;overflow=fill;fontSize=12;fontFamily=Helvetica;html=1;" vertex="1" parent="1">
          <mxGeometry x="1120" y="-1884.63" width="480" height="305.5" as="geometry" />
        </mxCell>
        <mxCell id="By_VAuEr0I4qx7pVThNe-2" value="&lt;p style=&quot;margin:0px;margin-top:4px;text-align:center;&quot;&gt;&lt;i&gt;&amp;lt;&amp;lt;entity&amp;gt;&amp;gt;&lt;/i&gt;&lt;br&gt;&lt;b&gt;小動物モデル｜animal&lt;/b&gt;&lt;/p&gt;&lt;hr size=&quot;1&quot;&gt;&lt;p style=&quot;margin:0px;margin-left:4px;&quot;&gt;&lt;span style=&quot;background-color: initial;&quot;&gt;+ form: {&amp;nbsp;&lt;/span&gt;&lt;br&gt;&lt;/p&gt;&lt;p style=&quot;margin:0px;margin-left:4px;&quot;&gt;&amp;nbsp; &amp;nbsp;date: String&lt;/p&gt;&lt;p style=&quot;margin:0px;margin-left:4px;&quot;&gt;&amp;nbsp; &amp;nbsp;year_month: String&lt;/p&gt;&lt;p style=&quot;margin:0px;margin-left:4px;&quot;&gt;&amp;nbsp; &amp;nbsp;month_term: String&lt;/p&gt;&lt;p style=&quot;margin:0px;margin-left:4px;&quot;&gt;&amp;nbsp; &amp;nbsp;time: String&lt;/p&gt;&lt;p style=&quot;margin:0px;margin-left:4px;&quot;&gt;&amp;nbsp; &amp;nbsp;day_term: String&lt;/p&gt;&lt;p style=&quot;margin:0px;margin-left:4px;&quot;&gt;&amp;nbsp; &amp;nbsp;number: String&lt;/p&gt;&lt;p style=&quot;margin:0px;margin-left:4px;&quot;&gt;&amp;nbsp; &amp;nbsp;note: String&lt;/p&gt;&lt;p style=&quot;margin:0px;margin-left:4px;&quot;&gt;&amp;nbsp; &amp;nbsp;lat: String,&lt;/p&gt;&lt;p style=&quot;margin:0px;margin-left:4px;&quot;&gt;&amp;nbsp; &amp;nbsp;lng: String,&lt;/p&gt;&lt;p style=&quot;margin:0px;margin-left:4px;&quot;&gt;&amp;nbsp; &amp;nbsp;latlng_type: String&lt;/p&gt;&lt;p style=&quot;margin:0px;margin-left:4px;&quot;&gt;&amp;nbsp; &amp;nbsp;emergency_rank: String&lt;/p&gt;&lt;p style=&quot;margin:0px;margin-left:4px;&quot;&gt;&amp;nbsp; &amp;nbsp;is_public: Boolean&lt;/p&gt;&lt;p style=&quot;margin:0px;margin-left:4px;&quot;&gt;&amp;nbsp; &amp;nbsp;is_traffic_accident: Boolean&lt;/p&gt;&lt;p style=&quot;margin:0px;margin-left:4px;&quot;&gt;&lt;span style=&quot;background-color: initial;&quot;&gt;&amp;nbsp; &amp;nbsp;is_date: Boolean&lt;/span&gt;&lt;br&gt;&lt;/p&gt;&lt;p style=&quot;margin:0px;margin-left:4px;&quot;&gt;&amp;nbsp; &amp;nbsp;is_time: Boolean&lt;/p&gt;&lt;p style=&quot;margin:0px;margin-left:4px;&quot;&gt;&amp;nbsp; &amp;nbsp;pole_id: String&lt;/p&gt;&lt;p style=&quot;margin:0px;margin-left:4px;&quot;&gt;&amp;nbsp; &amp;nbsp;is_pole_koho: false,&lt;/p&gt;&lt;p style=&quot;margin:0px;margin-left:4px;&quot;&gt;&amp;nbsp; &amp;nbsp;large_category_id: String&lt;/p&gt;&lt;p style=&quot;margin:0px;margin-left:4px;&quot;&gt;&amp;nbsp; &amp;nbsp;small_category_id: String&lt;/p&gt;&lt;p style=&quot;margin:0px;margin-left:4px;&quot;&gt;&amp;nbsp; &amp;nbsp;animal_category_id: String,&lt;/p&gt;&lt;p style=&quot;margin:0px;margin-left:4px;&quot;&gt;&amp;nbsp; &amp;nbsp;animal_size_id: String,&lt;/p&gt;&lt;p style=&quot;margin:0px;margin-left:4px;&quot;&gt;&amp;nbsp; &amp;nbsp;animal_category_name: String&lt;/p&gt;&lt;p style=&quot;margin:0px;margin-left:4px;&quot;&gt;&amp;nbsp; &amp;nbsp;animal_detail_size: String&lt;/p&gt;&lt;p style=&quot;margin:0px;margin-left:4px;&quot;&gt;&amp;nbsp; &amp;nbsp;batch_id: Boolean&lt;/p&gt;&lt;p style=&quot;margin:0px;margin-left:4px;&quot;&gt;&amp;nbsp; &amp;nbsp;is_register: Boolean&lt;br&gt;&lt;/p&gt;&lt;p style=&quot;margin:0px;margin-left:4px;&quot;&gt;&amp;nbsp; &amp;nbsp;find_location: String&lt;/p&gt;&lt;p style=&quot;margin:0px;margin-left:4px;&quot;&gt;&amp;nbsp; &amp;nbsp;survival_state: String&lt;/p&gt;&lt;p style=&quot;margin:0px;margin-left:4px;&quot;&gt;&amp;nbsp; &amp;nbsp;is_evaluation: Boolean&lt;/p&gt;&lt;p style=&quot;margin:0px;margin-left:4px;&quot;&gt;&amp;nbsp; &amp;nbsp;created: Date&lt;/p&gt;&lt;p style=&quot;margin:0px;margin-left:4px;&quot;&gt;&amp;nbsp; &amp;nbsp;created_username: String&lt;/p&gt;&lt;p style=&quot;margin:0px;margin-left:4px;&quot;&gt;&amp;nbsp; &amp;nbsp;created_uid: null,&lt;/p&gt;&lt;p style=&quot;margin:0px;margin-left:4px;&quot;&gt;&amp;nbsp; &amp;nbsp;updated: null,&lt;/p&gt;&lt;p style=&quot;margin:0px;margin-left:4px;&quot;&gt;&amp;nbsp; &amp;nbsp;updated_username: null,&lt;/p&gt;&lt;p style=&quot;margin:0px;margin-left:4px;&quot;&gt;&amp;nbsp; &amp;nbsp;updated_uid: null,&lt;/p&gt;&lt;p style=&quot;margin:0px;margin-left:4px;&quot;&gt;&amp;nbsp; &amp;nbsp;user: {&lt;/p&gt;&lt;p style=&quot;margin:0px;margin-left:4px;&quot;&gt;&amp;nbsp; &amp;nbsp; role: String,&lt;/p&gt;&lt;p style=&quot;margin:0px;margin-left:4px;&quot;&gt;&amp;nbsp; &amp;nbsp; attribute_type: String,&lt;/p&gt;&lt;p style=&quot;margin:0px;margin-left:4px;&quot;&gt;&amp;nbsp; &amp;nbsp; username: String,&lt;/p&gt;&lt;p style=&quot;margin:0px;margin-left:4px;&quot;&gt;&amp;nbsp; &amp;nbsp; email: String,&lt;/p&gt;&lt;p style=&quot;margin:0px;margin-left:4px;&quot;&gt;&amp;nbsp; &amp;nbsp; phone: String,&lt;/p&gt;&lt;p style=&quot;margin:0px;margin-left:4px;&quot;&gt;&amp;nbsp; &amp;nbsp; uid: String,&lt;/p&gt;&lt;p style=&quot;margin:0px;margin-left:4px;&quot;&gt;&amp;nbsp; }&lt;/p&gt;&lt;p style=&quot;margin:0px;margin-left:4px;&quot;&gt;&amp;nbsp; reporter: {&lt;/p&gt;&lt;p style=&quot;margin:0px;margin-left:4px;&quot;&gt;&amp;nbsp; &amp;nbsp; name: String,&lt;/p&gt;&lt;p style=&quot;margin:0px;margin-left:4px;&quot;&gt;&amp;nbsp; &amp;nbsp; email: String,&lt;/p&gt;&lt;p style=&quot;margin:0px;margin-left:4px;&quot;&gt;&amp;nbsp; &amp;nbsp; phone: String,&lt;/p&gt;&lt;p style=&quot;margin:0px;margin-left:4px;&quot;&gt;&amp;nbsp; &amp;nbsp; note: String,&lt;/p&gt;&lt;p style=&quot;margin:0px;margin-left:4px;&quot;&gt;&amp;nbsp; &amp;nbsp; attribute_type: String&lt;/p&gt;&lt;p style=&quot;margin:0px;margin-left:4px;&quot;&gt;&amp;nbsp; }&lt;/p&gt;&lt;p style=&quot;margin:0px;margin-left:4px;&quot;&gt;}&lt;/p&gt;&lt;p style=&quot;margin:0px;margin-left:4px;&quot;&gt;+&amp;nbsp;editItem: {}&lt;br&gt;&lt;/p&gt;&lt;p style=&quot;margin: 0px 0px 0px 4px;&quot;&gt;&lt;span style=&quot;background-color: initial;&quot;&gt;+&amp;nbsp;newItem: {}&lt;/span&gt;&lt;br&gt;&lt;/p&gt;&lt;p style=&quot;margin: 0px 0px 0px 4px;&quot;&gt;+&amp;nbsp;searchItem: {}&lt;span style=&quot;background-color: initial;&quot;&gt;&lt;br&gt;&lt;/span&gt;&lt;/p&gt;&lt;hr size=&quot;1&quot;&gt;&lt;p style=&quot;margin: 0px 0px 0px 4px;&quot;&gt;+ データを形成する()｜shapingData(): Object&lt;br&gt;&lt;/p&gt;&lt;p style=&quot;margin: 0px 0px 0px 4px;&quot;&gt;+ 検索｜matchCustom(params: Object, data: String):&amp;nbsp;&lt;/p&gt;&lt;p style=&quot;margin: 0px 0px 0px 4px;&quot;&gt;+ 日付データ表示形式を変換する()｜convertDate(): String&lt;br&gt;&lt;/p&gt;&lt;p style=&quot;margin: 0px 0px 0px 4px;&quot;&gt;+ カタカナをひらがなに変換する()｜katakanaToHiragana()&lt;/p&gt;&lt;p style=&quot;margin: 0px 0px 0px 4px;&quot;&gt;+ ひらがなをカタカナ&lt;span style=&quot;background-color: initial;&quot;&gt;に変換する()｜hiraganaToKatagana()&lt;/span&gt;&lt;/p&gt;" style="verticalAlign=top;align=left;overflow=fill;fontSize=12;fontFamily=Helvetica;html=1;" vertex="1" parent="1">
          <mxGeometry x="160" y="-2197.5" width="357" height="929" as="geometry" />
        </mxCell>
        <mxCell id="By_VAuEr0I4qx7pVThNe-3" value="&lt;p style=&quot;margin:0px;margin-top:4px;text-align:center;&quot;&gt;&lt;i&gt;&amp;lt;&amp;lt;boundary&amp;gt;&amp;gt;&lt;/i&gt;&lt;b&gt;&lt;br&gt;&lt;/b&gt;&lt;/p&gt;&lt;p style=&quot;margin:0px;margin-top:4px;text-align:center;&quot;&gt;&lt;b&gt;index&lt;/b&gt;&lt;/p&gt;&lt;hr size=&quot;1&quot;&gt;&lt;div&gt;&lt;span style=&quot;background-color: initial;&quot;&gt;&amp;nbsp;+&lt;/span&gt;&lt;span style=&quot;background-color: initial;&quot;&gt;&amp;nbsp;&lt;/span&gt;&lt;span style=&quot;background-color: initial;&quot;&gt;title: String&lt;/span&gt;&lt;br&gt;&lt;/div&gt;&lt;div&gt;&lt;div&gt;&lt;span style=&quot;background-color: initial;&quot;&gt;&amp;nbsp;+&lt;/span&gt;&lt;span style=&quot;background-color: initial;&quot;&gt;&amp;nbsp;&lt;/span&gt;snack: Boolean&lt;/div&gt;&lt;div&gt;&lt;span style=&quot;background-color: initial;&quot;&gt;&amp;nbsp;+&lt;/span&gt;&lt;span style=&quot;background-color: initial;&quot;&gt;&amp;nbsp;&lt;/span&gt;snackColor: String&lt;/div&gt;&lt;div&gt;&lt;span style=&quot;background-color: initial;&quot;&gt;&amp;nbsp;+&lt;/span&gt;&lt;span style=&quot;background-color: initial;&quot;&gt;&amp;nbsp;&lt;/span&gt;snackText:&amp;nbsp;&lt;span style=&quot;background-color: initial;&quot;&gt;String&lt;/span&gt;&lt;/div&gt;&lt;div&gt;&lt;span style=&quot;background-color: initial;&quot;&gt;&amp;nbsp;+&lt;/span&gt;&lt;span style=&quot;background-color: initial;&quot;&gt;&amp;nbsp;&lt;/span&gt;loadingSub: Boolean&lt;/div&gt;&lt;div&gt;&lt;span style=&quot;background-color: initial;&quot;&gt;&amp;nbsp;+&lt;/span&gt;&lt;span style=&quot;background-color: initial;&quot;&gt;&amp;nbsp;&lt;/span&gt;collapseOn:&amp;nbsp;&lt;span style=&quot;background-color: initial;&quot;&gt;Boolean&lt;/span&gt;&lt;/div&gt;&lt;div&gt;&lt;span style=&quot;background-color: initial;&quot;&gt;&amp;nbsp;+&lt;/span&gt;&lt;span style=&quot;background-color: initial;&quot;&gt;&amp;nbsp;&lt;/span&gt;isOpenFileupload:&amp;nbsp;&lt;span style=&quot;background-color: initial;&quot;&gt;Boolean&lt;/span&gt;&lt;/div&gt;&lt;div&gt;&lt;span style=&quot;background-color: initial;&quot;&gt;&amp;nbsp;+&lt;/span&gt;&lt;span style=&quot;background-color: initial;&quot;&gt;&amp;nbsp;&lt;/span&gt;isMyDataSelectAll:&amp;nbsp;&lt;span style=&quot;background-color: initial;&quot;&gt;Boolean&lt;/span&gt;&lt;/div&gt;&lt;div&gt;&lt;br&gt;&lt;/div&gt;&lt;/div&gt;&lt;hr size=&quot;1&quot;&gt;&lt;p style=&quot;margin:0px;margin-left:4px;&quot;&gt;&lt;span style=&quot;background-color: initial;&quot;&gt;+ データを取得し表示件数を設定する()｜getData():&amp;nbsp;&lt;/span&gt;&lt;/p&gt;&amp;nbsp;+ インポート選択画面を表示する()｜openFileupload():&amp;nbsp;&lt;br&gt;&amp;nbsp;+ インポート選択画面を閉じる()｜closeFileupload():&amp;nbsp;&lt;br&gt;&amp;nbsp;+ メッセージを表示する()｜showSnack():&amp;nbsp;&lt;br&gt;&amp;nbsp;+ 検索する(key: String)｜searchOn():&amp;nbsp;&lt;br&gt;&lt;span style=&quot;&quot;&gt;&amp;nbsp;+ 検索条件をクリアする()｜clearlSearch(key: String):&amp;nbsp;&lt;/span&gt;&lt;br&gt;&amp;nbsp;+ 検索値を取得する()｜readySearch(search_item: Object):&amp;nbsp;&lt;br&gt;&amp;nbsp;+ 編集の対象データを取得する()｜setAnimal(item: Obejct, unResisterMaster: Array):&amp;nbsp;&lt;br&gt;&amp;nbsp;+ 表の行選択データを保持する()｜selectRowData(items: Array):&lt;br&gt;&amp;nbsp;+ データ更新後の表を再表示()｜afterUpdate(item: Object):&lt;br&gt;&amp;nbsp;+ 電柱登録画面を表示する()｜modalOpenPole(item: Object):&lt;br&gt;&amp;nbsp;+ タブ切り替え()｜changeTab(name: String):" style="verticalAlign=top;align=left;overflow=fill;fontSize=12;fontFamily=Helvetica;html=1;" vertex="1" parent="1">
          <mxGeometry x="1120" y="-1520" width="480" height="390" as="geometry" />
        </mxCell>
        <mxCell id="By_VAuEr0I4qx7pVThNe-4" value="&amp;lt;&amp;lt;create&amp;gt;&amp;gt;" style="endArrow=open;startArrow=none;endFill=0;startFill=0;endSize=8;html=1;verticalAlign=bottom;dashed=1;labelBackgroundColor=none;rounded=0;fontColor=#000000;sourcePerimeterSpacing=0;targetPerimeterSpacing=0;strokeWidth=2;jumpSize=6;entryX=1;entryY=0.5;entryDx=0;entryDy=0;" edge="1" parent="1" source="By_VAuEr0I4qx7pVThNe-1" target="By_VAuEr0I4qx7pVThNe-5">
          <mxGeometry x="-0.1894" y="-2" width="160" relative="1" as="geometry">
            <mxPoint x="-70" y="-1305.5" as="sourcePoint" />
            <mxPoint x="-140" y="-1305.5" as="targetPoint" />
            <mxPoint as="offset" />
          </mxGeometry>
        </mxCell>
        <mxCell id="By_VAuEr0I4qx7pVThNe-5" value="&lt;p style=&quot;margin:0px;margin-top:4px;text-align:center;&quot;&gt;&lt;i&gt;&amp;lt;&amp;lt;entities&amp;gt;&amp;gt;&lt;/i&gt;&lt;br&gt;&lt;b&gt;小動物複数｜&lt;/b&gt;&lt;b&gt;animal&lt;/b&gt;&lt;b&gt;s&lt;/b&gt;&lt;br&gt;&lt;/p&gt;&lt;hr size=&quot;1&quot;&gt;&lt;p style=&quot;margin:0px;margin-left:4px;&quot;&gt;+ items: Array&lt;/p&gt;&lt;p style=&quot;margin:0px;margin-left:4px;&quot;&gt;+ 電柱｜poles: Array&lt;/p&gt;&lt;div style=&quot;&quot;&gt;&lt;div&gt;&amp;nbsp;#&amp;nbsp;分類群｜largeCategories: Array&lt;/div&gt;&lt;div&gt;&amp;nbsp;+ 小分類群｜smallCategories: Array&lt;/div&gt;&lt;div&gt;&amp;nbsp;+ 種名｜animalCategories: Array&lt;/div&gt;&lt;div&gt;&amp;nbsp;+ 大きさ｜animalSizes: Array&lt;/div&gt;&lt;div&gt;&amp;nbsp;+ 目撃現場｜findLocations: Array&lt;/div&gt;&lt;div&gt;&lt;p style=&quot;margin: 0px 0px 0px 4px;&quot;&gt;# 電柱の選択肢()｜poleOptions(): Array&lt;br&gt;&lt;/p&gt;&lt;p style=&quot;margin: 0px 0px 0px 4px;&quot;&gt;&lt;span style=&quot;background-color: initial;&quot;&gt;#&lt;/span&gt;&amp;nbsp;分類の選択肢()｜largeCategoryOptions(): Array&lt;br&gt;&lt;/p&gt;&lt;p style=&quot;margin: 0px 0px 0px 4px;&quot;&gt;&lt;span style=&quot;background-color: initial;&quot;&gt;#&lt;/span&gt;&amp;nbsp;小分類の選択肢()｜smallCategoryOptions(): Array&lt;br&gt;&lt;/p&gt;&lt;p style=&quot;margin: 0px 0px 0px 4px;&quot;&gt;&lt;span style=&quot;background-color: initial;&quot;&gt;#&lt;/span&gt;&amp;nbsp;種名の選択肢()｜animalCategoryOptions(): Array&lt;br&gt;&lt;/p&gt;&lt;p style=&quot;margin: 0px 0px 0px 4px;&quot;&gt;&lt;span style=&quot;background-color: initial;&quot;&gt;#&lt;/span&gt;&amp;nbsp;大きさの選択肢()｜animalSizeOptions(): Array&lt;br&gt;&lt;/p&gt;&lt;p style=&quot;margin: 0px 0px 0px 4px;&quot;&gt;&lt;span style=&quot;background-color: initial;&quot;&gt;#&lt;/span&gt;&amp;nbsp;目撃現場の選択肢()｜findLocationOptions(): Array&lt;br&gt;&lt;/p&gt;&lt;p style=&quot;margin: 0px 0px 0px 4px;&quot;&gt;&lt;span style=&quot;background-color: initial;&quot;&gt;#&lt;/span&gt;&amp;nbsp;目撃現場の選択肢()｜editAnimalCategoryOptions(): Array&lt;/p&gt;&lt;/div&gt;&lt;/div&gt;&lt;hr size=&quot;1&quot;&gt;&lt;p style=&quot;margin:0px;margin-left:4px;&quot;&gt;&lt;br&gt;&lt;/p&gt;" style="verticalAlign=top;align=left;overflow=fill;fontSize=12;fontFamily=Helvetica;html=1;fontColor=#000000;" vertex="1" parent="1">
          <mxGeometry x="640" y="-1886.38" width="360" height="307.25" as="geometry" />
        </mxCell>
        <mxCell id="By_VAuEr0I4qx7pVThNe-6" value="&lt;p style=&quot;margin:0px;margin-top:4px;text-align:center;&quot;&gt;&lt;i&gt;&amp;lt;&amp;lt;bind&amp;gt;&amp;gt;&lt;/i&gt;&lt;br&gt;&lt;b&gt;小動物一覧｜animal-table&lt;/b&gt;&lt;/p&gt;&lt;hr size=&quot;1&quot;&gt;&lt;div&gt;&lt;span style=&quot;background-color: initial;&quot;&gt;&amp;nbsp;+ columns: Array&lt;/span&gt;&lt;br&gt;&lt;/div&gt;&lt;div&gt;&amp;nbsp;+ sortBy: String&lt;/div&gt;&lt;div&gt;&lt;span style=&quot;background-color: initial;&quot;&gt;&amp;nbsp;+ isNone: Boolean&lt;/span&gt;&lt;/div&gt;&lt;hr size=&quot;1&quot;&gt;&lt;p style=&quot;margin:0px;margin-left:4px;&quot;&gt;&lt;span style=&quot;background-color: initial;&quot;&gt;+ 初期設定()｜initialize():&amp;nbsp;&lt;/span&gt;&lt;/p&gt;&lt;p style=&quot;margin:0px;margin-left:4px;&quot;&gt;&lt;span style=&quot;background-color: initial;&quot;&gt;+ DB更新後の再表示｜afterUpdate():&lt;/span&gt;&lt;/p&gt;&lt;p style=&quot;margin:0px;margin-left:4px;&quot;&gt;&lt;span style=&quot;background-color: initial;&quot;&gt;+ 表示データを抽出する｜tableFilter():&lt;/span&gt;&lt;/p&gt;&lt;p style=&quot;margin:0px;margin-left:4px;&quot;&gt;+ 行選択時の処理()｜selectRow(row: Object):&lt;br&gt;+ 更新する()｜save(item: Object, key: String):&amp;nbsp;&lt;/p&gt;&lt;p style=&quot;margin:0px;margin-left:4px;&quot;&gt;+ 種名を更新する()｜saveAnimalCategory(item: Object):&amp;nbsp;&lt;br&gt;&lt;/p&gt;&lt;p style=&quot;margin:0px;margin-left:4px;&quot;&gt;+ 種名を変更する()｜changeAnimalCategory(item: Object):&amp;nbsp;&lt;br&gt;&lt;/p&gt;&lt;p style=&quot;margin:0px;margin-left:4px;&quot;&gt;+ 編集ポップアップ画面を閉じる()｜closeDialog():&lt;br&gt;&lt;/p&gt;&lt;p style=&quot;margin:0px;margin-left:4px;&quot;&gt;+ 電柱設定画面を表示する()｜modalOpenPole():&lt;br&gt;&lt;/p&gt;&amp;nbsp;+ データ表示件数を増やす()｜moreDisplay():&lt;br&gt;&amp;nbsp;+ データを全て表示する()｜allDisplay():&amp;nbsp;" style="verticalAlign=top;align=left;overflow=fill;fontSize=12;fontFamily=Helvetica;html=1;" vertex="1" parent="1">
          <mxGeometry x="1760" y="-1760" width="360" height="270" as="geometry" />
        </mxCell>
        <mxCell id="By_VAuEr0I4qx7pVThNe-7" value="&lt;p style=&quot;margin:0px;margin-top:4px;text-align:center;&quot;&gt;&lt;i&gt;&amp;lt;&amp;lt;bind&amp;gt;&amp;gt;&lt;/i&gt;&lt;br&gt;&lt;b&gt;オプションバー｜options-bar&lt;/b&gt;&lt;/p&gt;&lt;hr size=&quot;1&quot;&gt;&lt;div&gt;&amp;nbsp;+ menu: Boolean&lt;span style=&quot;background-color: initial;&quot;&gt;&lt;br&gt;&lt;/span&gt;&lt;/div&gt;&lt;div&gt;&lt;span style=&quot;background-color: initial;&quot;&gt;&amp;nbsp;+ callapseOn: Boolean&lt;/span&gt;&lt;/div&gt;&lt;div&gt;&lt;span style=&quot;background-color: initial;&quot;&gt;&amp;nbsp;+ searchWord: String&lt;/span&gt;&lt;/div&gt;&lt;div&gt;&lt;span style=&quot;background-color: initial;&quot;&gt;&amp;nbsp;+ dates: Array&lt;/span&gt;&lt;/div&gt;&lt;div&gt;&amp;nbsp;+ isMyData: Boolean&lt;span style=&quot;background-color: initial;&quot;&gt;&lt;br&gt;&lt;/span&gt;&lt;/div&gt;&lt;hr size=&quot;1&quot;&gt;&lt;p style=&quot;margin:0px;margin-left:4px;&quot;&gt;&lt;span style=&quot;background-color: initial;&quot;&gt;+ 検索する()｜searchStart():&amp;nbsp;&lt;/span&gt;&lt;/p&gt;&lt;p style=&quot;margin:0px;margin-left:4px;&quot;&gt;+ 日付期間を選択し抽出する()｜filterDateRange():&amp;nbsp;&lt;br&gt;&lt;/p&gt;&amp;nbsp;+ 検索条件をクリアする()｜clear()&lt;br&gt;&amp;nbsp;+ 自身のデータのみ表示する()｜changeMyData():&lt;br&gt;&amp;nbsp;+ 検索窓を表示する()｜openMenu():&lt;span style=&quot;background-color: initial;&quot;&gt;&lt;br&gt;&lt;/span&gt;" style="verticalAlign=top;align=left;overflow=fill;fontSize=12;fontFamily=Helvetica;html=1;" vertex="1" parent="1">
          <mxGeometry x="1760" y="-1470" width="320" height="230" as="geometry" />
        </mxCell>
        <mxCell id="By_VAuEr0I4qx7pVThNe-8" value="&lt;p style=&quot;margin:0px;margin-top:4px;text-align:center;&quot;&gt;&lt;i&gt;&amp;lt;&amp;lt;bind&amp;gt;&amp;gt;&lt;/i&gt;&lt;br&gt;&lt;b&gt;種名選択｜animal-category-select2&lt;/b&gt;&lt;/p&gt;&lt;hr size=&quot;1&quot;&gt;&lt;div&gt;&lt;span style=&quot;background-color: initial;&quot;&gt;&amp;nbsp;+ animal_category_id: String&lt;/span&gt;&lt;/div&gt;&lt;div&gt;&amp;nbsp;+ large_category_name: String&lt;br&gt;&lt;/div&gt;&lt;div&gt;&amp;nbsp;+ small_category_name: String&lt;br&gt;&lt;/div&gt;&lt;hr size=&quot;1&quot;&gt;&lt;p style=&quot;margin:0px;margin-left:4px;&quot;&gt;&lt;span style=&quot;background-color: initial;&quot;&gt;+ 種名の選択を変更する()｜changeSelect(animal_category_id):&amp;nbsp;&lt;/span&gt;&lt;/p&gt;&lt;p style=&quot;margin:0px;margin-left:4px;&quot;&gt;+ 入力値より分類IDと小分類IDを取得する()｜setRelations(animal_category_id):&amp;nbsp;&lt;span style=&quot;background-color: initial;&quot;&gt;&lt;br&gt;&lt;/span&gt;&lt;/p&gt;&lt;p style=&quot;margin:0px;margin-left:4px;&quot;&gt;+ 入力チェック｜executeValid()&lt;br&gt;&lt;/p&gt;" style="verticalAlign=top;align=left;overflow=fill;fontSize=12;fontFamily=Helvetica;html=1;" vertex="1" parent="1">
          <mxGeometry x="2280" y="-1830" width="440" height="150" as="geometry" />
        </mxCell>
        <mxCell id="By_VAuEr0I4qx7pVThNe-9" value="&amp;lt;&amp;lt;create&amp;gt;&amp;gt;" style="endArrow=open;startArrow=none;endFill=0;startFill=0;endSize=8;html=1;verticalAlign=bottom;dashed=1;labelBackgroundColor=none;rounded=0;fontColor=#000000;sourcePerimeterSpacing=0;targetPerimeterSpacing=0;strokeWidth=2;jumpSize=6;exitX=1;exitY=0.5;exitDx=0;exitDy=0;edgeStyle=orthogonalEdgeStyle;entryX=0.5;entryY=1;entryDx=0;entryDy=0;" edge="1" parent="1" source="By_VAuEr0I4qx7pVThNe-8" target="By_VAuEr0I4qx7pVThNe-2">
          <mxGeometry x="-0.1894" y="-2" width="160" relative="1" as="geometry">
            <mxPoint x="1170" y="-1195.4957142857143" as="sourcePoint" />
            <mxPoint x="1080" y="-1195.21" as="targetPoint" />
            <mxPoint as="offset" />
            <Array as="points">
              <mxPoint x="2800" y="-1755" />
              <mxPoint x="2800" y="-710" />
              <mxPoint x="339" y="-710" />
            </Array>
          </mxGeometry>
        </mxCell>
        <mxCell id="By_VAuEr0I4qx7pVThNe-10" value="&lt;p style=&quot;margin:0px;margin-top:4px;text-align:center;&quot;&gt;&lt;i&gt;&amp;lt;&amp;lt;bind&amp;gt;&amp;gt;&lt;/i&gt;&lt;br&gt;&lt;b&gt;電柱登録｜dialog-pole&lt;/b&gt;&lt;/p&gt;&lt;hr size=&quot;1&quot;&gt;&lt;div&gt;&lt;span style=&quot;background-color: initial;&quot;&gt;&amp;nbsp;# item: Object&lt;/span&gt;&lt;/div&gt;&lt;div&gt;&lt;span style=&quot;background-color: initial;&quot;&gt;&amp;nbsp;# options: Array&lt;/span&gt;&lt;/div&gt;&lt;hr size=&quot;1&quot;&gt;&lt;p style=&quot;margin:0px;margin-left:4px;&quot;&gt;&lt;span style=&quot;background-color: initial;&quot;&gt;+ 入力値より抽出する()｜matchCustom():&amp;nbsp;&lt;/span&gt;&lt;/p&gt;" style="verticalAlign=top;align=left;overflow=fill;fontSize=12;fontFamily=Helvetica;html=1;" vertex="1" parent="1">
          <mxGeometry x="1760" y="-1200" width="240" height="120" as="geometry" />
        </mxCell>
        <mxCell id="By_VAuEr0I4qx7pVThNe-11" value="&lt;p style=&quot;margin:0px;margin-top:4px;text-align:center;&quot;&gt;&lt;i&gt;&amp;lt;&amp;lt;bind&amp;gt;&amp;gt;&lt;/i&gt;&lt;br&gt;&lt;b&gt;地図｜map&lt;/b&gt;&lt;/p&gt;&lt;hr size=&quot;1&quot;&gt;&lt;div&gt;&lt;span style=&quot;background-color: initial;&quot;&gt;&amp;nbsp;# item: Object&lt;/span&gt;&lt;/div&gt;&lt;div&gt;&lt;span style=&quot;background-color: initial;&quot;&gt;&amp;nbsp;# options: Array&lt;/span&gt;&lt;/div&gt;&lt;hr size=&quot;1&quot;&gt;&lt;p style=&quot;margin:0px;margin-left:4px;&quot;&gt;&lt;span style=&quot;background-color: initial;&quot;&gt;+ 入力値より抽出する()｜matchCustom():&amp;nbsp;&lt;/span&gt;&lt;/p&gt;" style="verticalAlign=top;align=left;overflow=fill;fontSize=12;fontFamily=Helvetica;html=1;" vertex="1" parent="1">
          <mxGeometry x="2080" y="-1200" width="280" height="120" as="geometry" />
        </mxCell>
        <mxCell id="By_VAuEr0I4qx7pVThNe-12" value="&amp;lt;&amp;lt;create&amp;gt;&amp;gt;" style="endArrow=open;startArrow=none;endFill=0;startFill=0;endSize=8;html=1;verticalAlign=bottom;dashed=1;labelBackgroundColor=none;rounded=0;fontColor=#000000;sourcePerimeterSpacing=0;targetPerimeterSpacing=0;strokeWidth=2;jumpSize=6;entryX=0;entryY=0.5;entryDx=0;entryDy=0;" edge="1" parent="1" source="By_VAuEr0I4qx7pVThNe-10" target="By_VAuEr0I4qx7pVThNe-11">
          <mxGeometry x="-0.1894" y="-2" width="160" relative="1" as="geometry">
            <mxPoint x="2330" y="-2020" as="sourcePoint" />
            <mxPoint x="1100" y="-1753.9999999999998" as="targetPoint" />
            <mxPoint as="offset" />
          </mxGeometry>
        </mxCell>
        <mxCell id="By_VAuEr0I4qx7pVThNe-13" value="&lt;p style=&quot;margin:0px;margin-top:4px;text-align:center;&quot;&gt;&lt;i&gt;&amp;lt;&amp;lt;bind&amp;gt;&amp;gt;&lt;/i&gt;&lt;br&gt;&lt;b&gt;日付編集｜form-date&lt;/b&gt;&lt;/p&gt;&lt;hr size=&quot;1&quot;&gt;&lt;div&gt;&lt;span style=&quot;background-color: initial;&quot;&gt;&amp;nbsp;# item: Object&lt;/span&gt;&lt;/div&gt;&lt;hr size=&quot;1&quot;&gt;&lt;p style=&quot;margin:0px;margin-left:4px;&quot;&gt;&lt;span style=&quot;background-color: initial;&quot;&gt;+ あいまい選択切り替え()｜rememberChange(val):&amp;nbsp;&lt;/span&gt;&lt;/p&gt;&lt;p style=&quot;margin:0px;margin-left:4px;&quot;&gt;&lt;span style=&quot;background-color: initial;&quot;&gt;+ 入力チェック｜executeValid()&lt;br&gt;&lt;/span&gt;&lt;/p&gt;&lt;p style=&quot;margin:0px;margin-left:4px;&quot;&gt;&lt;br&gt;&lt;/p&gt;" style="verticalAlign=top;align=left;overflow=fill;fontSize=12;fontFamily=Helvetica;html=1;" vertex="1" parent="1">
          <mxGeometry x="2280" y="-1660" width="300" height="110" as="geometry" />
        </mxCell>
        <mxCell id="By_VAuEr0I4qx7pVThNe-14" value="&lt;p style=&quot;margin:0px;margin-top:4px;text-align:center;&quot;&gt;&lt;i&gt;&amp;lt;&amp;lt;bind&amp;gt;&amp;gt;&lt;/i&gt;&lt;br&gt;&lt;b&gt;時刻編集｜form-time&lt;/b&gt;&lt;/p&gt;&lt;hr size=&quot;1&quot;&gt;&lt;div&gt;&lt;span style=&quot;background-color: initial;&quot;&gt;&amp;nbsp;# item: Object&lt;/span&gt;&lt;/div&gt;&lt;hr size=&quot;1&quot;&gt;&lt;p style=&quot;margin:0px;margin-left:4px;&quot;&gt;&lt;span style=&quot;background-color: initial;&quot;&gt;+ あいまい選択切り替え()｜rememberChange(val):&amp;nbsp;&lt;/span&gt;&lt;/p&gt;&lt;p style=&quot;margin:0px;margin-left:4px;&quot;&gt;+ 入力チェック｜executeValid()&lt;br&gt;&lt;/p&gt;" style="verticalAlign=top;align=left;overflow=fill;fontSize=12;fontFamily=Helvetica;html=1;" vertex="1" parent="1">
          <mxGeometry x="2280" y="-1520" width="300" height="110" as="geometry" />
        </mxCell>
        <mxCell id="By_VAuEr0I4qx7pVThNe-15" value="&amp;lt;&amp;lt;create&amp;gt;&amp;gt;" style="endArrow=open;startArrow=none;endFill=0;startFill=0;endSize=8;html=1;verticalAlign=bottom;dashed=1;labelBackgroundColor=none;rounded=0;fontColor=#000000;sourcePerimeterSpacing=0;targetPerimeterSpacing=0;strokeWidth=2;jumpSize=6;entryX=0;entryY=0.5;entryDx=0;entryDy=0;exitX=1;exitY=0.75;exitDx=0;exitDy=0;" edge="1" parent="1" source="By_VAuEr0I4qx7pVThNe-6" target="By_VAuEr0I4qx7pVThNe-13">
          <mxGeometry x="-0.1894" y="-2" width="160" relative="1" as="geometry">
            <mxPoint x="2129.9999999999995" y="-1360" as="sourcePoint" />
            <mxPoint x="2289.9999999999995" y="-1360" as="targetPoint" />
            <mxPoint as="offset" />
          </mxGeometry>
        </mxCell>
        <mxCell id="By_VAuEr0I4qx7pVThNe-16" value="&amp;lt;&amp;lt;create&amp;gt;&amp;gt;" style="endArrow=open;startArrow=none;endFill=0;startFill=0;endSize=8;html=1;verticalAlign=bottom;dashed=1;labelBackgroundColor=none;rounded=0;fontColor=#000000;sourcePerimeterSpacing=0;targetPerimeterSpacing=0;strokeWidth=2;jumpSize=6;entryX=0;entryY=0.5;entryDx=0;entryDy=0;exitX=1;exitY=0.75;exitDx=0;exitDy=0;" edge="1" parent="1" source="By_VAuEr0I4qx7pVThNe-6" target="By_VAuEr0I4qx7pVThNe-14">
          <mxGeometry x="-0.1894" y="-2" width="160" relative="1" as="geometry">
            <mxPoint x="2120" y="-1140" as="sourcePoint" />
            <mxPoint x="2291" y="-1185" as="targetPoint" />
            <mxPoint as="offset" />
          </mxGeometry>
        </mxCell>
        <mxCell id="By_VAuEr0I4qx7pVThNe-17" value="&amp;lt;&amp;lt;create&amp;gt;&amp;gt;" style="endArrow=open;startArrow=none;endFill=0;startFill=0;endSize=8;html=1;verticalAlign=bottom;dashed=1;labelBackgroundColor=none;rounded=0;fontColor=#000000;sourcePerimeterSpacing=0;targetPerimeterSpacing=0;strokeWidth=2;jumpSize=6;entryX=0;entryY=0.5;entryDx=0;entryDy=0;exitX=1;exitY=0.25;exitDx=0;exitDy=0;" edge="1" parent="1" source="By_VAuEr0I4qx7pVThNe-6" target="By_VAuEr0I4qx7pVThNe-8">
          <mxGeometry x="-0.1894" y="-2" width="160" relative="1" as="geometry">
            <mxPoint x="2129.9999999999995" y="-1130" as="sourcePoint" />
            <mxPoint x="2291" y="-1045" as="targetPoint" />
            <mxPoint as="offset" />
          </mxGeometry>
        </mxCell>
        <mxCell id="By_VAuEr0I4qx7pVThNe-18" value="&amp;lt;&amp;lt;create&amp;gt;&amp;gt;" style="endArrow=open;startArrow=none;endFill=0;startFill=0;endSize=8;html=1;verticalAlign=bottom;dashed=1;labelBackgroundColor=none;rounded=0;fontColor=#000000;sourcePerimeterSpacing=0;targetPerimeterSpacing=0;strokeWidth=2;jumpSize=6;exitX=0.5;exitY=0;exitDx=0;exitDy=0;" edge="1" parent="1" source="By_VAuEr0I4qx7pVThNe-3" target="By_VAuEr0I4qx7pVThNe-1">
          <mxGeometry x="-0.1894" y="-2" width="160" relative="1" as="geometry">
            <mxPoint x="1130" y="-1721.2966666666666" as="sourcePoint" />
            <mxPoint x="1010" y="-1721.005" as="targetPoint" />
            <mxPoint as="offset" />
          </mxGeometry>
        </mxCell>
        <mxCell id="By_VAuEr0I4qx7pVThNe-19" value="&lt;p style=&quot;margin:0px;margin-top:4px;text-align:center;&quot;&gt;&lt;i&gt;&amp;lt;&amp;lt;&amp;gt;&amp;gt;&lt;/i&gt;&lt;br&gt;&lt;b&gt;マスターストア｜master&lt;/b&gt;&lt;br&gt;&lt;/p&gt;&lt;hr size=&quot;1&quot;&gt;&lt;p style=&quot;margin:0px;margin-left:4px;&quot;&gt;+ large_categories: Array&lt;/p&gt;&lt;p style=&quot;margin:0px;margin-left:4px;&quot;&gt;+ small_categories: Array&lt;br&gt;&lt;/p&gt;&lt;p style=&quot;margin:0px;margin-left:4px;&quot;&gt;+ animal_categories: Array&lt;/p&gt;&lt;p style=&quot;margin:0px;margin-left:4px;&quot;&gt;+ animal_sizes: Array&lt;br&gt;&lt;/p&gt;&lt;hr size=&quot;1&quot;&gt;&lt;p style=&quot;margin:0px;margin-left:4px;&quot;&gt;&lt;span style=&quot;background-color: initial;&quot;&gt;+ 分類を取得する()｜getLargeCategories():&lt;/span&gt;&lt;/p&gt;&lt;p style=&quot;margin:0px;margin-left:4px;&quot;&gt;+ 小分類を取得する()｜getSmallCategories():&lt;/p&gt;&lt;p style=&quot;margin:0px;margin-left:4px;&quot;&gt;+ 種名を取得する()｜getAnimalCategories():&lt;/p&gt;&lt;p style=&quot;margin:0px;margin-left:4px;&quot;&gt;+ 大きさを取得する()｜getAnimalSizes():&lt;br&gt;&lt;/p&gt;" style="verticalAlign=top;align=left;overflow=fill;fontSize=12;fontFamily=Helvetica;html=1;fontColor=#000000;" vertex="1" parent="1">
          <mxGeometry x="1400" y="-2265.5" width="280" height="185.5" as="geometry" />
        </mxCell>
        <mxCell id="By_VAuEr0I4qx7pVThNe-20" value="&lt;p style=&quot;margin:0px;margin-top:4px;text-align:center;&quot;&gt;&lt;i&gt;&amp;lt;&amp;lt;&amp;gt;&amp;gt;&lt;/i&gt;&lt;br&gt;&lt;b&gt;電柱データストア｜pole&lt;/b&gt;&lt;br&gt;&lt;/p&gt;&lt;hr size=&quot;1&quot;&gt;&lt;p style=&quot;margin:0px;margin-left:4px;&quot;&gt;+ large_categories: Array&lt;/p&gt;&lt;p style=&quot;margin:0px;margin-left:4px;&quot;&gt;+ small_categories: Array&lt;br&gt;&lt;/p&gt;&lt;p style=&quot;margin:0px;margin-left:4px;&quot;&gt;+ animal_categories: Array&lt;/p&gt;&lt;p style=&quot;margin:0px;margin-left:4px;&quot;&gt;+ animal_sizes: Array&lt;br&gt;&lt;/p&gt;&lt;hr size=&quot;1&quot;&gt;&lt;p style=&quot;margin:0px;margin-left:4px;&quot;&gt;&lt;span style=&quot;background-color: initial;&quot;&gt;+ 電柱を取得する()｜gePoles():&amp;nbsp;&lt;/span&gt;&lt;/p&gt;&lt;span style=&quot;color: rgba(0, 0, 0, 0); font-family: monospace; font-size: 0px;&quot;&gt;%3CmxGraphModel%3E%3Croot%3E%3CmxCell%20id%3D%220%22%2F%3E%3CmxCell%20id%3D%221%22%20parent%3D%220%22%2F%3E%3CmxCell%20id%3D%222%22%20value%3D%22%26amp%3Blt%3B%26amp%3Blt%3Bcreate%26amp%3Bgt%3B%26amp%3Bgt%3B%22%20style%3D%22endArrow%3Dopen%3Bhtml%3D1%3Brounded%3D0%3Balign%3Dcenter%3BverticalAlign%3Dbottom%3Bdashed%3D1%3BendFill%3D0%3BlabelBackgroundColor%3Dnone%3BfontColor%3D%23000000%3BstartSize%3D22%3BendSize%3D6%3BsourcePerimeterSpacing%3D0%3BtargetPerimeterSpacing%3D0%3BstrokeWidth%3D2%3BjumpSize%3D6%3BexitX%3D0%3BexitY%3D0%3BexitDx%3D0%3BexitDy%3D0%3BentryX%3D0.5%3BentryY%3D1%3BentryDx%3D0%3BentryDy%3D0%3B%22%20edge%3D%221%22%20parent%3D%221%22%3E%3CmxGeometry%20relative%3D%221%22%20as%3D%22geometry%22%3E%3CmxPoint%20x%3D%221156.250000000001%22%20y%3D%22-1780%22%20as%3D%22sourcePoint%22%2F%3E%3CmxPoint%20x%3D%22865%22%20y%3D%22-2054.5%22%20as%3D%22targetPoint%22%2F%3E%3C%2FmxGeometry%3E%3C%2FmxCell%3E%3CmxCell%20id%3D%223%22%20value%3D%22%E3%83%AD%E3%83%BC%E3%83%89%E3%82%AD%E3%83%AB%E8%AA%BF%E6%9F%BBDB%E9%80%A3%E6%90%BA%22%20style%3D%22resizable%3D0%3Bhtml%3D1%3Balign%3Dcenter%3BverticalAlign%3Dtop%3BlabelBackgroundColor%3Dnone%3BfontColor%3D%23000000%3B%22%20connectable%3D%220%22%20vertex%3D%221%22%20parent%3D%222%22%3E%3CmxGeometry%20relative%3D%221%22%20as%3D%22geometry%22%2F%3E%3C%2FmxCell%3E%3C%2Froot%3E%3C%2FmxGraphMode&lt;br&gt;&lt;/span&gt;" style="verticalAlign=top;align=left;overflow=fill;fontSize=12;fontFamily=Helvetica;html=1;fontColor=#000000;" vertex="1" parent="1">
          <mxGeometry x="840" y="-2220" width="240" height="140" as="geometry" />
        </mxCell>
        <mxCell id="By_VAuEr0I4qx7pVThNe-21" value="1" style="endArrow=open;html=1;endSize=12;startArrow=diamondThin;startSize=14;startFill=0;align=left;verticalAlign=bottom;rounded=0;dashed=1;fontColor=#000000;sourcePerimeterSpacing=0;targetPerimeterSpacing=0;strokeWidth=2;jumpSize=6;exitX=0;exitY=0.5;exitDx=0;exitDy=0;entryX=1;entryY=0.5;entryDx=0;entryDy=0;" edge="1" parent="1" source="By_VAuEr0I4qx7pVThNe-5" target="By_VAuEr0I4qx7pVThNe-2">
          <mxGeometry x="-1" y="3" relative="1" as="geometry">
            <mxPoint x="570" y="-1613" as="sourcePoint" />
            <mxPoint x="480" y="-1613" as="targetPoint" />
          </mxGeometry>
        </mxCell>
        <mxCell id="By_VAuEr0I4qx7pVThNe-22" value="&amp;lt;&amp;lt;create&amp;gt;&amp;gt;" style="endArrow=open;html=1;rounded=0;align=center;verticalAlign=bottom;dashed=1;endFill=0;labelBackgroundColor=none;fontColor=#000000;startSize=22;endSize=6;sourcePerimeterSpacing=0;targetPerimeterSpacing=0;strokeWidth=2;jumpSize=6;exitX=0.5;exitY=0;exitDx=0;exitDy=0;entryX=0.5;entryY=1;entryDx=0;entryDy=0;" edge="1" parent="1" source="By_VAuEr0I4qx7pVThNe-1" target="By_VAuEr0I4qx7pVThNe-34">
          <mxGeometry relative="1" as="geometry">
            <mxPoint x="1156.250000000001" y="-1695.5" as="sourcePoint" />
            <mxPoint x="1250" y="-2090" as="targetPoint" />
          </mxGeometry>
        </mxCell>
        <mxCell id="By_VAuEr0I4qx7pVThNe-23" value="小動物投稿DB連携" style="resizable=0;html=1;align=center;verticalAlign=top;labelBackgroundColor=none;fontColor=#000000;" connectable="0" vertex="1" parent="By_VAuEr0I4qx7pVThNe-22">
          <mxGeometry relative="1" as="geometry" />
        </mxCell>
        <mxCell id="By_VAuEr0I4qx7pVThNe-24" value="&amp;lt;&amp;lt;create&amp;gt;&amp;gt;" style="endArrow=open;html=1;rounded=0;align=center;verticalAlign=bottom;dashed=1;endFill=0;labelBackgroundColor=none;fontColor=#000000;startSize=22;endSize=6;sourcePerimeterSpacing=0;targetPerimeterSpacing=0;strokeWidth=2;jumpSize=6;entryX=0.5;entryY=1;entryDx=0;entryDy=0;exitX=0.75;exitY=0;exitDx=0;exitDy=0;" edge="1" parent="1" source="By_VAuEr0I4qx7pVThNe-1" target="By_VAuEr0I4qx7pVThNe-19">
          <mxGeometry relative="1" as="geometry">
            <mxPoint x="1370" y="-1885.5" as="sourcePoint" />
            <mxPoint x="1210" y="-1945.5" as="targetPoint" />
          </mxGeometry>
        </mxCell>
        <mxCell id="By_VAuEr0I4qx7pVThNe-25" value="種名DB連携" style="resizable=0;html=1;align=center;verticalAlign=top;labelBackgroundColor=none;fontColor=#000000;" connectable="0" vertex="1" parent="By_VAuEr0I4qx7pVThNe-24">
          <mxGeometry relative="1" as="geometry" />
        </mxCell>
        <mxCell id="By_VAuEr0I4qx7pVThNe-26" value="&amp;lt;&amp;lt;create&amp;gt;&amp;gt;" style="endArrow=open;html=1;rounded=0;align=center;verticalAlign=bottom;dashed=1;endFill=0;labelBackgroundColor=none;fontColor=#000000;startSize=22;endSize=6;sourcePerimeterSpacing=0;targetPerimeterSpacing=0;strokeWidth=2;jumpSize=6;exitX=0.25;exitY=0;exitDx=0;exitDy=0;entryX=0.5;entryY=1;entryDx=0;entryDy=0;" edge="1" parent="1" source="By_VAuEr0I4qx7pVThNe-1" target="By_VAuEr0I4qx7pVThNe-20">
          <mxGeometry relative="1" as="geometry">
            <mxPoint x="1490" y="-1874.63" as="sourcePoint" />
            <mxPoint x="830" y="-2005.5" as="targetPoint" />
          </mxGeometry>
        </mxCell>
        <mxCell id="By_VAuEr0I4qx7pVThNe-27" value="電柱DB連携" style="resizable=0;html=1;align=center;verticalAlign=top;labelBackgroundColor=none;fontColor=#000000;" connectable="0" vertex="1" parent="By_VAuEr0I4qx7pVThNe-26">
          <mxGeometry relative="1" as="geometry" />
        </mxCell>
        <mxCell id="By_VAuEr0I4qx7pVThNe-28" value="&lt;span style=&quot;color: rgb(0, 0, 0); font-family: Helvetica; font-size: 12px; font-style: normal; font-variant-ligatures: normal; font-variant-caps: normal; font-weight: 400; letter-spacing: normal; orphans: 2; text-align: right; text-indent: 0px; text-transform: none; widows: 2; word-spacing: 0px; -webkit-text-stroke-width: 0px; background-color: rgb(248, 249, 250); text-decoration-thickness: initial; text-decoration-style: initial; text-decoration-color: initial; float: none; display: inline !important;&quot;&gt;+ props&amp;nbsp;&lt;/span&gt;&lt;span style=&quot;text-align: right;&quot;&gt;{&lt;/span&gt;&lt;span style=&quot;color: rgb(0, 0, 0); font-family: Helvetica; font-size: 12px; font-style: normal; font-variant-ligatures: normal; font-variant-caps: normal; font-weight: 400; letter-spacing: normal; orphans: 2; text-align: right; text-indent: 0px; text-transform: none; widows: 2; word-spacing: 0px; -webkit-text-stroke-width: 0px; background-color: rgb(248, 249, 250); text-decoration-thickness: initial; text-decoration-style: initial; text-decoration-color: initial; float: none; display: inline !important;&quot;&gt;item: Object,&amp;nbsp;&lt;br&gt;largeCategories: Array,&lt;br&gt;&lt;/span&gt;&lt;span style=&quot;color: rgb(0, 0, 0); font-family: Helvetica; font-size: 12px; font-style: normal; font-variant-ligatures: normal; font-variant-caps: normal; font-weight: 400; letter-spacing: normal; orphans: 2; text-align: right; text-indent: 0px; text-transform: none; widows: 2; word-spacing: 0px; -webkit-text-stroke-width: 0px; background-color: rgb(248, 249, 250); text-decoration-thickness: initial; text-decoration-style: initial; text-decoration-color: initial; float: none; display: inline !important;&quot;&gt;smallCategories: Array,&lt;br&gt;animalCategories: Array}&lt;/span&gt;" style="text;whiteSpace=wrap;html=1;" vertex="1" parent="1">
          <mxGeometry x="2280" y="-1900" width="160" height="70" as="geometry" />
        </mxCell>
        <mxCell id="By_VAuEr0I4qx7pVThNe-29" value="&lt;p style=&quot;margin:0px;margin-top:4px;text-align:center;&quot;&gt;&lt;i&gt;&amp;lt;&amp;lt;bind&amp;gt;&amp;gt;&lt;/i&gt;&lt;br&gt;&lt;b&gt;日付範囲選択｜date&lt;/b&gt;&lt;b style=&quot;background-color: initial;&quot;&gt;-picker-range&lt;/b&gt;&lt;/p&gt;&lt;hr size=&quot;1&quot;&gt;&lt;div&gt;&lt;span style=&quot;background-color: initial;&quot;&gt;&amp;nbsp;+&lt;/span&gt;&lt;span style=&quot;background-color: initial;&quot;&gt;&amp;nbsp;&lt;/span&gt;&lt;span style=&quot;background-color: initial;&quot;&gt;tab: String&lt;/span&gt;&lt;br&gt;&lt;/div&gt;&lt;hr size=&quot;1&quot;&gt;&lt;p style=&quot;margin:0px;margin-left:4px;&quot;&gt;+ 日付範囲を初期化()｜initDate(range: ):&lt;br&gt;&lt;/p&gt;&lt;p style=&quot;margin:0px;margin-left:4px;&quot;&gt;+ 日付範囲を初期化()｜isDateRange():&lt;br&gt;&lt;/p&gt;" style="verticalAlign=top;align=left;overflow=fill;fontSize=12;fontFamily=Helvetica;html=1;" vertex="1" parent="1">
          <mxGeometry x="2280" y="-1386.5" width="240" height="116.5" as="geometry" />
        </mxCell>
        <mxCell id="By_VAuEr0I4qx7pVThNe-30" value="&amp;lt;&amp;lt;create&amp;gt;&amp;gt;" style="endArrow=open;startArrow=none;endFill=0;startFill=0;endSize=8;html=1;verticalAlign=bottom;dashed=1;labelBackgroundColor=none;rounded=0;fontColor=#000000;sourcePerimeterSpacing=0;targetPerimeterSpacing=0;strokeWidth=2;jumpSize=6;entryX=0;entryY=0.5;entryDx=0;entryDy=0;exitX=1;exitY=0.5;exitDx=0;exitDy=0;" edge="1" parent="1" source="By_VAuEr0I4qx7pVThNe-7" target="By_VAuEr0I4qx7pVThNe-29">
          <mxGeometry x="-0.1894" y="-2" width="160" relative="1" as="geometry">
            <mxPoint x="2130" y="-1557.5" as="sourcePoint" />
            <mxPoint x="2290" y="-1455" as="targetPoint" />
            <mxPoint as="offset" />
          </mxGeometry>
        </mxCell>
        <mxCell id="By_VAuEr0I4qx7pVThNe-31" value="&amp;lt;&amp;lt;create&amp;gt;&amp;gt;" style="endArrow=open;startArrow=none;endFill=0;startFill=0;endSize=8;html=1;verticalAlign=bottom;dashed=1;labelBackgroundColor=none;rounded=0;fontColor=#000000;sourcePerimeterSpacing=0;targetPerimeterSpacing=0;strokeWidth=2;jumpSize=6;entryX=0;entryY=0.5;entryDx=0;entryDy=0;exitX=1;exitY=0.5;exitDx=0;exitDy=0;" edge="1" parent="1" source="By_VAuEr0I4qx7pVThNe-3" target="By_VAuEr0I4qx7pVThNe-10">
          <mxGeometry x="-0.1894" y="-2" width="160" relative="1" as="geometry">
            <mxPoint x="2130" y="-1547.5" as="sourcePoint" />
            <mxPoint x="2290" y="-1595" as="targetPoint" />
            <mxPoint as="offset" />
          </mxGeometry>
        </mxCell>
        <mxCell id="By_VAuEr0I4qx7pVThNe-32" value="&amp;lt;&amp;lt;create&amp;gt;&amp;gt;" style="endArrow=open;startArrow=none;endFill=0;startFill=0;endSize=8;html=1;verticalAlign=bottom;dashed=1;labelBackgroundColor=none;rounded=0;fontColor=#000000;sourcePerimeterSpacing=0;targetPerimeterSpacing=0;strokeWidth=2;jumpSize=6;entryX=0;entryY=0.5;entryDx=0;entryDy=0;" edge="1" parent="1" target="By_VAuEr0I4qx7pVThNe-7">
          <mxGeometry x="-0.1894" y="-2" width="160" relative="1" as="geometry">
            <mxPoint x="1600" y="-1330" as="sourcePoint" />
            <mxPoint x="1770" y="-1085" as="targetPoint" />
            <mxPoint as="offset" />
          </mxGeometry>
        </mxCell>
        <mxCell id="By_VAuEr0I4qx7pVThNe-33" value="&amp;lt;&amp;lt;create&amp;gt;&amp;gt;" style="endArrow=open;startArrow=none;endFill=0;startFill=0;endSize=8;html=1;verticalAlign=bottom;dashed=1;labelBackgroundColor=none;rounded=0;fontColor=#000000;sourcePerimeterSpacing=0;targetPerimeterSpacing=0;strokeWidth=2;jumpSize=6;entryX=0;entryY=0.5;entryDx=0;entryDy=0;exitX=1;exitY=0.5;exitDx=0;exitDy=0;" edge="1" parent="1" source="By_VAuEr0I4qx7pVThNe-3" target="By_VAuEr0I4qx7pVThNe-6">
          <mxGeometry x="-0.1894" y="-2" width="160" relative="1" as="geometry">
            <mxPoint x="1610" y="-1320" as="sourcePoint" />
            <mxPoint x="1770" y="-1345" as="targetPoint" />
            <mxPoint as="offset" />
          </mxGeometry>
        </mxCell>
        <mxCell id="By_VAuEr0I4qx7pVThNe-34" value="&lt;p style=&quot;margin:0px;margin-top:4px;text-align:center;&quot;&gt;&lt;i&gt;&amp;lt;&amp;lt;&amp;gt;&amp;gt;&lt;/i&gt;&lt;br&gt;&lt;b&gt;小動物データストア｜animal&lt;/b&gt;&lt;br&gt;&lt;/p&gt;&lt;hr size=&quot;1&quot;&gt;&lt;p style=&quot;margin:0px;margin-left:4px;&quot;&gt;+ animals: Array&lt;/p&gt;&lt;hr size=&quot;1&quot;&gt;&lt;p style=&quot;margin:0px;margin-left:4px;&quot;&gt;&lt;span style=&quot;background-color: initial;&quot;&gt;+ 小動物を取得する()｜getAnimals(): Array&lt;/span&gt;&lt;/p&gt;" style="verticalAlign=top;align=left;overflow=fill;fontSize=12;fontFamily=Helvetica;html=1;fontColor=#000000;" vertex="1" parent="1">
          <mxGeometry x="1120" y="-2185.5" width="250" height="105.5" as="geometry" />
        </mxCell>
        <mxCell id="By_VAuEr0I4qx7pVThNe-35" value="&lt;p style=&quot;margin:0px;margin-top:4px;text-align:center;&quot;&gt;&lt;i&gt;&amp;lt;&amp;lt;bind&amp;gt;&amp;gt;&lt;/i&gt;&lt;br&gt;&lt;b&gt;ユーザー登録｜user-popover&lt;/b&gt;&lt;/p&gt;&lt;hr size=&quot;1&quot;&gt;&lt;div&gt;&lt;span style=&quot;background-color: initial;&quot;&gt;&amp;nbsp;# item: Object&lt;/span&gt;&lt;/div&gt;&lt;div&gt;&lt;span style=&quot;background-color: initial;&quot;&gt;&amp;nbsp;# title: String&lt;/span&gt;&lt;/div&gt;&lt;div&gt;&amp;nbsp;# color: String&lt;span style=&quot;background-color: initial;&quot;&gt;&lt;br&gt;&lt;/span&gt;&lt;/div&gt;&lt;hr size=&quot;1&quot;&gt;&lt;p style=&quot;margin:0px;margin-left:4px;&quot;&gt;&lt;br&gt;&lt;/p&gt;" style="verticalAlign=top;align=left;overflow=fill;fontSize=12;fontFamily=Helvetica;html=1;" vertex="1" parent="1">
          <mxGeometry x="2280" y="-2040" width="240" height="120" as="geometry" />
        </mxCell>
      </root>
    </mxGraphModel>
  </diagram>
</mxfile>
